<svg width="32" height="32" viewBox="0 0 32 32" fill="none" xmlns="http://www.w3.org/2000/svg">
<path d="M13.4267 3.75996L4.18667 11.16C3.14667 11.9867 2.47998 13.7334 2.70665 15.0401L4.47997 25.6533C4.79997 27.5467 6.61331 29.0801 8.53331 29.0801H23.4667C25.3733 29.0801 27.2 27.5333 27.52 25.6533L29.2933 15.0401C29.5067 13.7334 28.84 11.9867 27.8133 11.16L18.5733 3.7733C17.1466 2.62663 14.84 2.62662 13.4267 3.75996Z" stroke="#222222" stroke-width="2" stroke-linecap="round" stroke-linejoin="round"/>
<path d="M13.1733 19.1734C14.8667 17.56 17.1333 17.56 18.8267 19.1734" stroke="#222222" stroke-width="2" stroke-linecap="round" stroke-linejoin="round"/>
<path d="M21.6533 16.3468C20.9333 15.6401 20.1334 15.0934 19.3067 14.6934C17.1867 13.6801 14.8133 13.6801 12.68 14.6934C11.8533 15.0934 11.0667 15.6401 10.3333 16.3468" stroke="#222222" stroke-width="2" stroke-linecap="round" stroke-linejoin="round"/>
<path d="M15.994 22.6667H16.006" stroke="#222222" stroke-width="2" stroke-linecap="round" stroke-linejoin="round"/>
</svg>
