<svg width="32" height="32" viewBox="0 0 32 32" fill="none" xmlns="http://www.w3.org/2000/svg">
<path d="M8 5.33332C10.2267 3.66666 13 2.66666 16 2.66666C23.36 2.66666 29.3333 8.63999 29.3333 16C29.3333 23.36 23.36 29.3333 16 29.3333C8.64 29.3333 2.66666 23.36 2.66666 16C2.66666 13.5867 3.30665 11.32 4.43998 9.35998L16 16" stroke="#5A5A5A" stroke-width="2" stroke-miterlimit="10" stroke-linecap="round" stroke-linejoin="round"/>
<path d="M9.10665 11.9467C8.39998 13.1333 8 14.52 8 16C8 20.4133 11.5867 24 16 24C20.4133 24 24 20.4133 24 16C24 11.5867 20.4133 8 16 8C14.7867 8 13.6267 8.26668 12.6 8.76001" stroke="#5A5A5A" stroke-width="2" stroke-miterlimit="10" stroke-linecap="round" stroke-linejoin="round"/>
</svg>
