<svg width="34" height="34" viewBox="0 0 34 34" fill="none" xmlns="http://www.w3.org/2000/svg">
<path d="M28.4 10V24C28.4 29.6 27 31 21.4 31H13C7.4 31 6 29.6 6 24V10C6 4.4 7.4 3 13 3H21.4C27 3 28.4 4.4 28.4 10Z" stroke="#222222" stroke-width="2.1" stroke-linecap="round" stroke-linejoin="round"/>
<path d="M20 7.9H14.4" stroke="#222222" stroke-width="2.1" stroke-linecap="round" stroke-linejoin="round"/>
<path d="M17.2 26.94C18.3985 26.94 19.37 25.9685 19.37 24.77C19.37 23.5715 18.3985 22.6 17.2 22.6C16.0016 22.6 15.03 23.5715 15.03 24.77C15.03 25.9685 16.0016 26.94 17.2 26.94Z" stroke="#222222" stroke-width="2.1" stroke-linecap="round" stroke-linejoin="round"/>
</svg>
